<svg width="680" height="200" viewBox="0 0 680 200" role="img" xmlns="http://www.w3.org/2000/svg">
<title>Strings — Get Anyone on Your Side</title>
<desc>Banner for the Strings AI communication strategy tool</desc>

<rect width="680" height="200" fill="#0a0a0a" rx="12"/>

<circle cx="580" cy="40" r="80" fill="#1a1a2e" opacity="0.8"/>
<circle cx="100" cy="170" r="60" fill="#1a1a2e" opacity="0.6"/>

<line x1="480" y1="60" x2="560" y2="90" stroke="#6366f1" stroke-width="0.5" opacity="0.4"/>
<line x1="500" y1="80" x2="540" y2="50" stroke="#6366f1" stroke-width="0.5" opacity="0.3"/>
<line x1="460" y1="100" x2="590" y2="70" stroke="#6366f1" stroke-width="0.5" opacity="0.3"/>
<line x1="470" y1="120" x2="580" y2="110" stroke="#6366f1" stroke-width="0.5" opacity="0.2"/>

<circle cx="480" cy="60" r="2.5" fill="#6366f1" opacity="0.7"/>
<circle cx="560" cy="90" r="2.5" fill="#6366f1" opacity="0.7"/>
<circle cx="500" cy="80" r="2" fill="#818cf8" opacity="0.5"/>
<circle cx="540" cy="50" r="2" fill="#818cf8" opacity="0.5"/>
<circle cx="460" cy="100" r="2" fill="#6366f1" opacity="0.4"/>
<circle cx="590" cy="70" r="2" fill="#6366f1" opacity="0.4"/>
<circle cx="470" cy="120" r="1.5" fill="#818cf8" opacity="0.4"/>
<circle cx="580" cy="110" r="1.5" fill="#818cf8" opacity="0.4"/>

<text x="52" y="98" font-family="system-ui, -apple-system, sans-serif" font-size="52" font-weight="700" fill="#ffffff" letter-spacing="-2">Strings</text>

<text x="54" y="128" font-family="system-ui, -apple-system, sans-serif" font-size="15" font-weight="400" fill="#a0a0b0" letter-spacing="0.2">Get anyone on your side — AI-powered communication strategy</text>

<rect x="52" y="148" width="130" height="32" rx="6" fill="#6366f1"/>
<text x="117" y="169" font-family="system-ui, -apple-system, sans-serif" font-size="13" font-weight="500" fill="#ffffff" text-anchor="middle">Try it live →</text>

<rect x="194" y="148" width="110" height="32" rx="6" fill="none" stroke="#3a3a4a" stroke-width="1"/>
<text x="249" y="169" font-family="system-ui, -apple-system, sans-serif" font-size="13" font-weight="400" fill="#a0a0b0" text-anchor="middle">FastAPI + Groq</text>

<rect x="52" y="58" width="3" height="52" rx="1.5" fill="#6366f1" opacity="0.9"/>
</svg>
